<?xml version="1.0" standalone="no"?>
<!DOCTYPE svg PUBLIC "-//W3C//DTD SVG 20010904//EN"
 "http://www.w3.org/TR/2001/REC-SVG-20010904/DTD/svg10.dtd">
<svg version="1.0" xmlns="http://www.w3.org/2000/svg"
 width="360.000000pt" height="360.000000pt" viewBox="0 0 360.000000 360.000000"
 preserveAspectRatio="xMidYMid meet">

<g transform="translate(0.000000,360.000000) scale(0.100000,-0.100000)"
fill="#000000" stroke="none">
<path d="M470 1820 l0 -1300 1330 0 1330 0 0 1300 0 1300 -1330 0 -1330 0 0
-1300z m2528 -2 l2 -1168 -1195 0 -1195 0 0 1170 0 1170 1193 -2 1192 -3 3
-1167z"/>
<path d="M870 2564 c0 -3 78 -162 174 -353 l174 -347 -45 -85 c-113 -212 -313
-600 -313 -609 0 -6 48 -10 121 -10 l120 0 51 108 c28 59 86 183 129 277 l78
170 76 -160 c42 -88 101 -213 132 -277 l56 -118 129 0 c84 0 128 4 128 11 0 5
-20 47 -44 92 -65 122 -299 578 -313 608 -6 15 -8 31 -3 35 10 12 340 650 340
658 0 4 -54 5 -120 4 l-120 -3 -70 -149 c-39 -83 -93 -201 -122 -264 l-52
-115 -28 59 c-35 74 -182 386 -206 436 l-17 38 -127 0 c-71 0 -128 -2 -128 -6z"/>
<path d="M2550 2395 l0 -175 -76 0 c-302 0 -513 -225 -514 -548 0 -269 137
-465 361 -513 87 -19 270 -6 364 25 44 14 85 29 90 33 7 5 9 240 7 681 l-4
672 -114 0 -114 0 0 -175z m-7 -382 c4 -2 7 -150 7 -328 l0 -324 -46 -7 c-148
-22 -263 58 -294 205 -19 89 -9 244 19 306 38 86 100 138 184 155 39 8 112 4
130 -7z"/>
</g>
</svg>
