<?xml version="1.0" standalone="no"?>
<!DOCTYPE svg PUBLIC "-//W3C//DTD SVG 20010904//EN"
 "http://www.w3.org/TR/2001/REC-SVG-20010904/DTD/svg10.dtd">
<svg version="1.0" xmlns="http://www.w3.org/2000/svg"
 width="420.000000pt" height="420.000000pt" viewBox="0 0 420.000000 420.000000"
 preserveAspectRatio="xMidYMid meet">

<g transform="translate(0.000000,420.000000) scale(0.100000,-0.100000)"
fill="#000000" stroke="none">
<path d="M2055 3969 c45 -125 -11 -312 -145 -491 -28 -37 -158 -174 -288 -305
-392 -393 -553 -620 -651 -920 -52 -158 -64 -247 -58 -428 4 -136 8 -174 31
-250 73 -245 221 -433 445 -565 66 -39 190 -91 246 -104 l30 -7 -35 22 c-144
88 -253 244 -281 401 -22 124 11 269 92 404 37 61 139 178 171 195 18 10 19 8
12 -49 -15 -138 69 -242 196 -242 123 0 199 90 187 220 -6 69 -28 114 -101
205 -31 39 -73 104 -94 144 -35 71 -37 80 -37 171 0 91 2 100 38 171 20 40 48
88 62 104 l25 30 0 -50 c0 -121 95 -231 340 -395 286 -191 392 -286 478 -431
69 -114 95 -205 96 -329 0 -117 -13 -173 -66 -273 -45 -85 -163 -203 -258
-256 -89 -50 -59 -46 84 10 368 145 633 440 701 778 24 115 16 324 -15 430
-76 263 -253 485 -524 656 l-58 37 7 -32 c9 -43 -33 -127 -79 -158 -67 -46
-159 -49 -221 -8 -39 26 -84 94 -102 155 -20 71 -13 174 22 301 76 281 71 402
-30 607 -56 114 -164 255 -217 284 -16 9 -16 6 -3 -32z"/>
<path d="M1585 613 c-4 -21 -7 -45 -8 -53 -2 -11 -19 -16 -59 -20 -67 -6 -99
-31 -117 -89 -29 -98 2 -165 75 -163 21 0 58 1 82 2 23 0 42 2 42 4 0 2 11 81
25 176 14 95 25 174 25 176 0 2 -13 4 -30 4 -26 0 -30 -4 -35 -37z m-33 -123
c18 0 0 -133 -19 -147 -23 -17 -58 -16 -73 2 -32 38 25 167 66 151 9 -3 20 -6
26 -6z"/>
<path d="M2637 643 c-4 -3 -7 -19 -7 -35 0 -24 4 -28 29 -28 29 0 41 14 41 51
0 14 -7 19 -28 19 -16 0 -32 -3 -35 -7z"/>
<path d="M975 615 c-50 -18 -71 -43 -90 -108 -33 -113 -10 -196 62 -217 46
-14 106 -1 147 31 30 24 33 44 8 58 -13 7 -23 4 -41 -15 -33 -34 -94 -34 -117
1 -15 22 -15 35 -6 92 14 82 39 113 94 113 31 0 41 -5 50 -25 8 -18 19 -25 41
-25 27 0 29 2 22 28 -16 65 -92 96 -170 67z"/>
<path d="M2793 620 c-15 -6 -23 -18 -23 -32 0 -28 -9 -42 -32 -51 -25 -9 -24
-47 1 -47 16 0 17 -5 10 -42 -14 -73 -11 -134 8 -149 20 -17 97 -17 117 0 12
10 13 18 5 32 -8 16 -14 17 -30 8 -40 -21 -52 -5 -45 59 11 88 13 92 51 92 31
0 45 13 45 41 0 5 -16 9 -36 9 l-37 0 5 45 c6 48 2 51 -39 35z"/>
<path d="M1927 613 c-13 -12 -7 -33 9 -33 18 0 17 -18 -8 -177 -9 -61 -14 -73
-29 -73 -12 0 -19 -7 -19 -20 0 -18 7 -20 65 -20 58 0 65 2 65 20 0 12 -7 20
-16 20 -12 0 -15 6 -11 23 3 12 11 67 18 121 10 81 16 100 31 104 10 2 18 13
18 23 0 16 -8 19 -58 19 -32 0 -62 -3 -65 -7z"/>
<path d="M1196 519 c-38 -30 -62 -119 -47 -171 15 -48 62 -73 120 -63 64 11
96 51 106 131 8 55 -10 106 -40 118 -37 14 -112 6 -139 -15z m115 -53 c17 -38
-9 -118 -43 -130 -43 -15 -61 7 -56 71 5 62 20 83 59 83 21 0 32 -7 40 -24z"/>
<path d="M1713 530 c-48 -20 -84 -123 -63 -185 23 -69 126 -84 187 -28 l27 26
-22 10 c-17 8 -31 6 -57 -9 -40 -21 -68 -12 -73 25 -3 20 0 21 77 21 l81 0 0
53 c0 70 -26 97 -91 96 -24 0 -54 -4 -66 -9z m95 -67 c3 -21 -1 -23 -42 -23
-31 0 -46 4 -46 13 0 23 24 38 55 35 22 -2 31 -9 33 -25z"/>
<path d="M2111 523 c-33 -22 -53 -76 -41 -107 6 -16 6 -27 0 -31 -6 -4 -10
-15 -10 -27 0 -11 -9 -31 -20 -45 -37 -47 -22 -103 31 -122 69 -24 166 -5 188
37 30 56 3 94 -74 107 -57 9 -75 15 -75 24 0 4 15 5 34 3 76 -9 136 36 136
101 0 16 7 26 18 30 11 2 21 13 24 25 5 19 1 20 -91 21 -74 0 -103 -3 -120
-16z m107 -59 c4 -29 -25 -56 -57 -52 -30 3 -41 39 -20 64 19 23 73 14 77 -12z
m-39 -173 c53 -15 24 -61 -38 -61 -44 0 -66 19 -56 50 7 21 43 26 94 11z"/>
<path d="M2340 533 c0 -5 -7 -51 -15 -103 -21 -136 -21 -140 14 -140 29 0 29
0 42 90 13 97 25 115 72 108 19 -3 22 -9 21 -43 0 -22 -4 -66 -8 -97 l-8 -58
30 0 c34 0 38 12 49 138 5 61 3 75 -12 92 -20 23 -74 27 -108 9 -16 -9 -22 -9
-25 0 -4 12 -52 16 -52 4z"/>
<path d="M2587 533 c-14 -14 -7 -43 11 -43 18 0 18 -5 6 -82 -14 -99 -7 -118
40 -118 25 0 35 5 39 20 3 12 -1 24 -11 29 -13 8 -14 18 -4 79 20 119 19 122
-31 122 -24 0 -47 -3 -50 -7z"/>
<path d="M2962 524 c-45 -32 -71 -121 -51 -181 22 -67 125 -81 185 -26 l28 25
-24 13 c-21 11 -28 10 -49 -6 -38 -31 -72 -23 -85 19 -7 22 -6 22 78 22 l86 0
1 28 c4 91 -20 122 -96 122 -30 0 -60 -6 -73 -16z m106 -61 c3 -21 -1 -23 -42
-23 -31 0 -46 4 -46 13 0 23 24 38 55 35 22 -2 31 -9 33 -25z"/>
<path d="M3185 528 c-3 -11 -35 -220 -35 -233 0 -3 13 -5 29 -5 32 0 32 -1 51
119 10 69 19 81 61 81 24 0 39 16 39 41 0 13 -64 11 -77 -2 -8 -8 -13 -8 -17
0 -10 15 -46 14 -51 -1z"/>
</g>
</svg>
