<?xml version="1.0" standalone="no"?>
<!DOCTYPE svg PUBLIC "-//W3C//DTD SVG 20010904//EN"
 "http://www.w3.org/TR/2001/REC-SVG-20010904/DTD/svg10.dtd">
<svg version="1.0" xmlns="http://www.w3.org/2000/svg"
 width="360.000000pt" height="360.000000pt" viewBox="0 0 360.000000 360.000000"
 preserveAspectRatio="xMidYMid meet">

<g transform="translate(0.000000,360.000000) scale(0.100000,-0.100000)"
fill="#000000" stroke="none">
<path d="M770 3351 c-49 -15 -87 -40 -124 -81 -68 -75 -70 -87 -74 -357 l-4
-243 -183 0 c-172 0 -185 -1 -195 -19 -6 -13 -10 -148 -10 -370 0 -304 2 -352
16 -365 13 -13 45 -16 195 -16 l179 0 0 -445 0 -445 -178 0 c-125 0 -182 -4
-190 -12 -17 -17 -17 -729 0 -746 9 -9 193 -12 765 -12 734 0 753 0 763 19 5
11 10 33 10 50 l0 30 428 3 c394 3 430 4 462 22 63 33 99 66 127 114 l28 47 5
275 5 275 300 3 c268 2 301 4 313 19 18 24 18 712 0 736 -12 15 -45 17 -313
19 l-300 3 -3 123 -3 122 391 0 390 0 0 370 0 370 -390 0 -390 0 0 158 c0 143
-2 161 -24 207 -24 52 -72 101 -129 132 -30 17 -92 18 -937 20 -498 1 -916 -2
-930 -6z m1852 -93 c34 -21 53 -41 72 -80 24 -49 26 -61 26 -195 l0 -143 -125
0 -125 0 0 -370 0 -370 125 0 125 0 0 -125 0 -125 -415 0 c-475 0 -435 9 -435
-99 l0 -60 -136 -3 c-118 -3 -138 -5 -148 -20 -8 -13 -8 -23 0 -35 10 -16 30
-18 148 -21 l136 -3 0 -252 c0 -184 3 -256 12 -265 9 -9 117 -12 425 -12 l413
0 0 -250 c0 -204 -3 -258 -15 -288 -20 -47 -50 -79 -97 -103 -35 -18 -64 -19
-453 -19 l-415 0 0 195 0 195 344 0 c300 0 347 2 360 16 20 19 20 29 0 48 -13
14 -60 16 -358 16 l-343 0 -5 51 c-3 28 -12 55 -19 60 -8 5 -251 9 -541 9
l-528 0 0 445 0 445 524 0 c589 0 556 -4 556 73 l0 42 351 0 c332 0 351 1 364
19 10 13 11 24 4 37 -9 18 -29 19 -364 19 l-355 0 0 165 0 165 355 0 c325 0
355 1 364 17 6 11 6 24 0 35 -9 17 -35 18 -364 18 l-355 0 0 78 c0 47 -5 83
-12 90 -9 9 -143 12 -540 12 l-528 0 0 233 c0 224 1 236 23 277 12 24 34 52
48 62 64 48 47 48 979 45 l875 -2 47 -27z m98 -788 l0 -290 -85 0 -85 0 0 290
0 290 85 0 85 0 0 -290z m770 0 l0 -290 -350 0 -350 0 0 290 0 290 350 0 350
0 0 -290z m-1840 -180 l0 -310 -695 0 -695 0 0 310 0 310 695 0 695 0 0 -310z
m1690 -825 l0 -315 -695 0 -695 0 0 309 c0 238 3 311 13 315 6 2 319 5 695 5
l682 0 0 -314z m-1680 -845 l0 -310 -695 0 -695 0 0 310 0 310 695 0 695 0 0
-310z"/>
<path d="M919 2874 c-9 -11 -10 -20 -2 -32 9 -16 73 -17 764 -20 691 -2 755
-1 766 14 9 12 9 22 2 35 -9 18 -39 19 -763 19 -675 0 -755 -2 -767 -16z"/>
<path d="M922 1678 c-16 -16 -15 -33 4 -52 13 -13 43 -16 174 -16 131 0 161 3
174 16 9 8 16 21 16 28 0 31 -24 36 -190 36 -116 0 -170 -4 -178 -12z"/>
<path d="M926 1274 c-9 -8 -16 -19 -16 -24 0 -5 7 -16 16 -24 14 -14 60 -16
396 -14 350 3 382 4 392 21 8 12 8 22 0 35 -10 16 -42 17 -392 20 -336 2 -382
0 -396 -14z"/>
<path d="M3004 2697 c-2 -7 -3 -109 -2 -227 l3 -215 87 -3 c105 -3 162 10 198
46 56 56 44 159 -22 187 -27 11 -30 15 -15 20 10 4 24 20 32 36 32 62 9 127
-55 153 -51 20 -218 23 -226 3z m186 -77 c43 -43 9 -100 -60 -100 l-40 0 0 60
0 60 40 0 c27 0 47 -7 60 -20z m20 -190 c27 -27 26 -75 -2 -94 -13 -9 -43 -16
-70 -16 l-48 0 0 65 0 65 50 0 c37 0 55 -5 70 -20z"/>
<path d="M353 2463 c-10 -3 -13 -48 -13 -174 0 -148 2 -170 16 -176 33 -12 49
11 52 76 l3 61 49 0 49 0 3 -61 c3 -69 22 -94 56 -73 15 10 17 31 20 155 3
164 0 185 -29 194 -34 11 -49 -12 -49 -76 l0 -59 -50 0 -50 0 0 58 c0 71 -16
92 -57 75z"/>
<path d="M632 2458 c-15 -15 -15 -41 0 -56 7 -7 34 -12 60 -12 l48 0 0 -135
c0 -116 2 -137 16 -142 9 -3 24 -2 33 4 13 8 16 34 19 142 l3 131 40 0 c49 0
79 15 79 38 0 37 -20 42 -155 42 -89 0 -135 -4 -143 -12z"/>
<path d="M972 2458 c-17 -17 -17 -319 0 -336 35 -35 68 -1 69 70 l0 43 20 -50
c25 -62 36 -75 61 -75 14 0 27 17 48 63 l29 62 1 -50 c0 -54 12 -75 42 -75 30
0 39 45 37 182 -1 150 -4 165 -31 174 -28 9 -41 -8 -83 -111 -20 -49 -40 -93
-44 -98 -4 -4 -25 36 -46 89 -49 121 -71 144 -103 112z"/>
<path d="M1322 2462 c-9 -7 -12 -49 -10 -178 l3 -169 120 -3 c103 -2 122 0
132 14 9 12 9 22 2 35 -8 16 -22 19 -99 19 l-90 0 0 133 c0 90 -4 137 -12 145
-14 14 -28 15 -46 4z"/>
<path d="M2239 1667 c-60 -23 -96 -54 -123 -109 -56 -112 -13 -233 102 -285
45 -21 64 -25 113 -20 97 9 158 61 114 97 -13 11 -21 11 -49 -3 -61 -29 -97
-30 -145 -5 -61 31 -84 66 -83 123 0 53 20 88 65 115 40 25 114 26 161 4 44
-21 68 -13 64 23 -6 53 -139 90 -219 60z"/>
<path d="M2615 1665 c-47 -24 -75 -65 -75 -109 0 -50 45 -94 127 -124 33 -12
68 -31 78 -42 18 -20 18 -21 -3 -42 -40 -41 -112 -25 -133 29 -18 49 -69 36
-69 -17 0 -35 34 -79 76 -96 100 -42 214 19 214 113 0 48 -40 87 -120 119 -38
15 -77 35 -86 46 -16 17 -16 19 1 38 37 41 135 18 135 -33 0 -21 37 -32 55
-17 36 30 3 103 -58 131 -51 23 -102 24 -142 4z"/>
<path d="M2984 1666 c-46 -20 -74 -62 -74 -110 0 -54 32 -86 120 -122 36 -14
71 -31 78 -37 20 -16 10 -51 -21 -65 -38 -18 -95 0 -103 33 -8 33 -29 48 -54
40 -28 -9 -27 -63 2 -100 86 -109 288 -41 264 89 -8 43 -47 76 -129 106 -55
21 -87 43 -87 60 0 24 34 41 79 38 42 -3 47 -6 64 -40 18 -39 42 -49 65 -26
31 31 -2 102 -61 129 -49 22 -100 24 -143 5z"/>
<path d="M856 844 c-13 -13 -16 -43 -16 -170 0 -151 -1 -156 -25 -179 -34 -35
-88 -34 -120 1 -14 15 -25 37 -25 49 0 30 -24 48 -51 40 -19 -6 -21 -12 -17
-57 12 -123 169 -178 262 -92 48 46 56 79 56 243 0 123 -3 152 -16 165 -8 9
-19 16 -24 16 -5 0 -16 -7 -24 -16z"/>
<path d="M1140 850 c-50 -9 -78 -27 -100 -63 -45 -73 -6 -148 96 -187 105 -39
131 -60 118 -94 -7 -18 -49 -36 -85 -36 -32 0 -79 38 -79 64 0 20 -37 31 -55
16 -20 -17 -19 -49 5 -87 50 -83 183 -92 257 -18 25 25 33 42 33 69 0 74 -37
109 -163 156 -73 27 -87 51 -53 85 17 17 36 25 59 25 40 0 87 -33 87 -61 0
-20 40 -36 59 -24 18 11 12 71 -10 99 -37 47 -103 69 -169 56z"/>
</g>
</svg>
