<?xml version="1.0" standalone="no"?>
<!DOCTYPE svg PUBLIC "-//W3C//DTD SVG 20010904//EN"
 "http://www.w3.org/TR/2001/REC-SVG-20010904/DTD/svg10.dtd">
<svg version="1.0" xmlns="http://www.w3.org/2000/svg"
 width="360.000000pt" height="360.000000pt" viewBox="0 0 360.000000 360.000000"
 preserveAspectRatio="xMidYMid meet">

<g transform="translate(0.000000,360.000000) scale(0.100000,-0.100000)"
fill="#000000" stroke="none">
<path d="M470 1800 l0 -1300 1330 0 1330 0 0 1300 0 1300 -1330 0 -1330 0 0
-1300z m2540 -5 l0 -1185 -1207 2 -1208 3 -3 1183 -2 1182 1210 0 1210 0 0
-1185z"/>
<path d="M2204 2356 c-71 -71 -26 -175 77 -176 56 0 95 27 107 73 20 73 -30
137 -106 137 -37 0 -50 -6 -78 -34z"/>
<path d="M1481 2338 c-5 -18 -44 -141 -87 -273 -42 -132 -114 -359 -161 -505
-46 -146 -86 -271 -88 -277 -3 -10 21 -13 98 -13 l103 0 16 53 c9 28 31 98 48
155 l31 102 174 0 174 0 49 -152 48 -153 107 -3 c59 -1 107 0 107 3 0 3 -13
45 -29 93 -25 75 -165 505 -287 885 l-38 117 -127 0 -127 0 -11 -32z m236
-490 l39 -118 -143 0 -142 0 9 28 c39 116 100 320 110 368 7 33 15 63 18 68 3
5 20 -45 38 -110 18 -65 50 -172 71 -236z"/>
<path d="M2180 1665 l0 -395 100 0 100 0 0 395 0 395 -100 0 -100 0 0 -395z"/>
</g>
</svg>
