<?xml version="1.0" standalone="no"?>
<!DOCTYPE svg PUBLIC "-//W3C//DTD SVG 20010904//EN"
 "http://www.w3.org/TR/2001/REC-SVG-20010904/DTD/svg10.dtd">
<svg version="1.0" xmlns="http://www.w3.org/2000/svg"
 width="348.000000pt" height="348.000000pt" viewBox="0 0 348.000000 348.000000"
 preserveAspectRatio="xMidYMid meet">

<g transform="translate(0.000000,348.000000) scale(0.100000,-0.100000)"
fill="#000000" stroke="none">
<path d="M1295 3454 c-624 -156 -1116 -641 -1271 -1252 -23 -91 -24 -109 -24
-437 0 -335 1 -345 25 -441 160 -616 657 -1102 1275 -1248 175 -42 256 -49
463 -43 213 6 310 22 493 82 830 272 1332 1143 1154 2003 -131 629 -596 1131
-1224 1320 l-121 36 -335 3 c-329 2 -337 2 -435 -23z m600 -882 c-6 -5 -152
-113 -326 -240 l-316 -232 -476 -2 c-263 -2 -476 0 -475 4 2 4 154 113 338
242 l335 235 465 1 c255 0 460 -4 455 -8z m491 -282 c147 -38 263 -126 328
-250 62 -118 66 -152 66 -637 l0 -433 -205 0 -205 0 0 437 c0 421 -1 438 -21
479 -44 92 -130 136 -227 116 -66 -14 -106 -42 -135 -95 -22 -41 -22 -49 -25
-489 l-3 -448 -199 0 -200 0 0 433 0 432 -24 50 c-13 28 -33 59 -45 69 -11 11
-21 26 -21 34 0 21 109 238 133 263 23 25 52 20 117 -20 l45 -27 43 27 c52 33
156 67 242 79 90 12 246 3 336 -20z m-899 -137 c-73 -129 -127 -289 -127 -372
l0 -36 -34 50 c-69 103 -242 235 -307 235 -10 0 -20 3 -23 8 -2 4 57 6 132 5
l137 -3 120 84 c66 46 123 84 127 85 4 1 -8 -25 -25 -56z m-457 -171 c140 -69
142 -71 130 -113 -6 -20 -10 -215 -10 -466 l0 -433 -200 0 -200 0 0 453 c0
450 2 480 37 576 l15 43 62 -4 c50 -3 82 -14 166 -56z"/>
</g>
</svg>
