<?xml version="1.0" standalone="no"?>
<!DOCTYPE svg PUBLIC "-//W3C//DTD SVG 20010904//EN"
 "http://www.w3.org/TR/2001/REC-SVG-20010904/DTD/svg10.dtd">
<svg version="1.0" xmlns="http://www.w3.org/2000/svg"
 width="360.000000pt" height="360.000000pt" viewBox="0 0 360.000000 360.000000"
 preserveAspectRatio="xMidYMid meet">

<g transform="translate(0.000000,360.000000) scale(0.100000,-0.100000)"
fill="#000000" stroke="none">
<path d="M470 1800 l0 -1300 1330 0 1330 0 0 1300 0 1300 -1330 0 -1330 0 0
-1300z m2540 0 l0 -1180 -1205 0 -1205 0 0 1180 0 1180 1205 0 1205 0 0 -1180z"/>
<path d="M1292 2370 c-51 -4 -99 -11 -107 -14 -13 -5 -15 -79 -15 -546 l0
-540 100 0 100 0 0 205 0 205 93 0 c156 0 258 34 344 113 54 50 77 93 93 174
30 154 -31 292 -160 358 -85 44 -263 62 -448 45z m305 -165 c50 -21 72 -42 94
-90 42 -91 4 -206 -83 -251 -41 -21 -129 -34 -188 -27 l-50 6 0 188 0 189 95
0 c63 0 108 -5 132 -15z"/>
<path d="M2155 2071 c-84 -23 -143 -68 -177 -135 -32 -62 -30 -152 5 -205 33
-49 110 -101 195 -132 83 -29 122 -65 122 -112 0 -27 -7 -41 -32 -62 -30 -26
-37 -27 -108 -22 -41 2 -95 12 -120 21 -71 27 -70 27 -90 -47 -21 -78 -24 -73
75 -103 86 -26 232 -24 305 4 92 36 143 93 160 179 12 65 -5 134 -44 186 -27
36 -48 48 -228 131 -41 19 -59 34 -66 55 -14 40 8 85 48 100 52 18 90 13 205
-24 18 -5 22 2 39 60 21 75 21 75 -44 96 -45 14 -206 21 -245 10z"/>
</g>
</svg>
